<mxfile host="app.diagrams.net" modified="2023-06-21T18:58:13.382Z" agent="Mozilla/5.0 (Windows NT 10.0; Win64; x64) AppleWebKit/537.36 (KHTML, like Gecko) Chrome/114.0.0.0 Safari/537.36" etag="pM0whRmaIWZP72dvnefE" version="21.3.2" type="device">
  <diagram name="PÃ¡gina-1" id="ae6Ebm41JLWdSi-S-eCB">
    <mxGraphModel dx="2670" dy="1942" grid="1" gridSize="10" guides="1" tooltips="1" connect="1" arrows="1" fold="1" page="1" pageScale="1" pageWidth="827" pageHeight="1169" math="0" shadow="0">
      <root>
        <mxCell id="0" />
        <mxCell id="1" parent="0" />
        <mxCell id="MHSmnJoHn_NfGtvNQNY1-27" value="" style="html=1;whiteSpace=wrap;" vertex="1" parent="1">
          <mxGeometry x="250" y="165" width="660" height="280" as="geometry" />
        </mxCell>
        <mxCell id="MHSmnJoHn_NfGtvNQNY1-1" value="&lt;h1&gt;&lt;font face=&quot;Comic Sans MS&quot;&gt;PATRON COMPOSITE&lt;/font&gt;&lt;/h1&gt;" style="text;html=1;strokeColor=none;fillColor=none;align=center;verticalAlign=middle;whiteSpace=wrap;rounded=0;" vertex="1" parent="1">
          <mxGeometry x="239" width="350" height="30" as="geometry" />
        </mxCell>
        <mxCell id="MHSmnJoHn_NfGtvNQNY1-2" value=":Clinica" style="shape=umlLifeline;perimeter=lifelinePerimeter;whiteSpace=wrap;html=1;container=1;dropTarget=0;collapsible=0;recursiveResize=0;outlineConnect=0;portConstraint=eastwest;newEdgeStyle={&quot;edgeStyle&quot;:&quot;elbowEdgeStyle&quot;,&quot;elbow&quot;:&quot;vertical&quot;,&quot;curved&quot;:0,&quot;rounded&quot;:0};" vertex="1" parent="1">
          <mxGeometry x="30" y="80" width="100" height="670" as="geometry" />
        </mxCell>
        <mxCell id="MHSmnJoHn_NfGtvNQNY1-9" value="" style="html=1;points=[];perimeter=orthogonalPerimeter;outlineConnect=0;targetShapes=umlLifeline;portConstraint=eastwest;newEdgeStyle={&quot;edgeStyle&quot;:&quot;elbowEdgeStyle&quot;,&quot;elbow&quot;:&quot;vertical&quot;,&quot;curved&quot;:0,&quot;rounded&quot;:0};" vertex="1" parent="MHSmnJoHn_NfGtvNQNY1-2">
          <mxGeometry x="45" y="50" width="10" height="510" as="geometry" />
        </mxCell>
        <mxCell id="MHSmnJoHn_NfGtvNQNY1-4" value="" style="shape=umlLifeline;perimeter=lifelinePerimeter;whiteSpace=wrap;html=1;container=1;dropTarget=0;collapsible=0;recursiveResize=0;outlineConnect=0;portConstraint=eastwest;newEdgeStyle={&quot;edgeStyle&quot;:&quot;elbowEdgeStyle&quot;,&quot;elbow&quot;:&quot;vertical&quot;,&quot;curved&quot;:0,&quot;rounded&quot;:0};participant=umlActor;size=50;" vertex="1" parent="1">
          <mxGeometry x="-180" y="70" width="40" height="670" as="geometry" />
        </mxCell>
        <mxCell id="MHSmnJoHn_NfGtvNQNY1-5" value="" style="html=1;points=[];perimeter=orthogonalPerimeter;outlineConnect=0;targetShapes=umlLifeline;portConstraint=eastwest;newEdgeStyle={&quot;edgeStyle&quot;:&quot;elbowEdgeStyle&quot;,&quot;elbow&quot;:&quot;vertical&quot;,&quot;curved&quot;:0,&quot;rounded&quot;:0};" vertex="1" parent="MHSmnJoHn_NfGtvNQNY1-4">
          <mxGeometry x="15" y="60" width="10" height="510" as="geometry" />
        </mxCell>
        <mxCell id="MHSmnJoHn_NfGtvNQNY1-8" value="1- obtenerPresupuesto(Servicio)" style="html=1;verticalAlign=bottom;endArrow=block;edgeStyle=elbowEdgeStyle;elbow=vertical;curved=0;rounded=0;" edge="1" parent="1" target="MHSmnJoHn_NfGtvNQNY1-2">
          <mxGeometry width="80" relative="1" as="geometry">
            <mxPoint x="-150" y="160" as="sourcePoint" />
            <mxPoint x="-10" y="160" as="targetPoint" />
          </mxGeometry>
        </mxCell>
        <mxCell id="MHSmnJoHn_NfGtvNQNY1-10" value=":Servicio" style="shape=umlLifeline;perimeter=lifelinePerimeter;whiteSpace=wrap;html=1;container=1;dropTarget=0;collapsible=0;recursiveResize=0;outlineConnect=0;portConstraint=eastwest;newEdgeStyle={&quot;edgeStyle&quot;:&quot;elbowEdgeStyle&quot;,&quot;elbow&quot;:&quot;vertical&quot;,&quot;curved&quot;:0,&quot;rounded&quot;:0};" vertex="1" parent="1">
          <mxGeometry x="230" y="80" width="100" height="680" as="geometry" />
        </mxCell>
        <mxCell id="MHSmnJoHn_NfGtvNQNY1-12" value="" style="html=1;points=[];perimeter=orthogonalPerimeter;outlineConnect=0;targetShapes=umlLifeline;portConstraint=eastwest;newEdgeStyle={&quot;edgeStyle&quot;:&quot;elbowEdgeStyle&quot;,&quot;elbow&quot;:&quot;vertical&quot;,&quot;curved&quot;:0,&quot;rounded&quot;:0};" vertex="1" parent="MHSmnJoHn_NfGtvNQNY1-10">
          <mxGeometry x="45" y="50" width="10" height="510" as="geometry" />
        </mxCell>
        <mxCell id="MHSmnJoHn_NfGtvNQNY1-13" value=":Paquete" style="shape=umlLifeline;perimeter=lifelinePerimeter;whiteSpace=wrap;html=1;container=1;dropTarget=0;collapsible=0;recursiveResize=0;outlineConnect=0;portConstraint=eastwest;newEdgeStyle={&quot;edgeStyle&quot;:&quot;elbowEdgeStyle&quot;,&quot;elbow&quot;:&quot;vertical&quot;,&quot;curved&quot;:0,&quot;rounded&quot;:0};" vertex="1" parent="1">
          <mxGeometry x="500" y="80" width="100" height="420" as="geometry" />
        </mxCell>
        <mxCell id="MHSmnJoHn_NfGtvNQNY1-17" value="" style="html=1;points=[];perimeter=orthogonalPerimeter;outlineConnect=0;targetShapes=umlLifeline;portConstraint=eastwest;newEdgeStyle={&quot;edgeStyle&quot;:&quot;elbowEdgeStyle&quot;,&quot;elbow&quot;:&quot;vertical&quot;,&quot;curved&quot;:0,&quot;rounded&quot;:0};" vertex="1" parent="MHSmnJoHn_NfGtvNQNY1-13">
          <mxGeometry x="45" y="214" width="10" height="150" as="geometry" />
        </mxCell>
        <mxCell id="MHSmnJoHn_NfGtvNQNY1-14" value=":Tratamiento" style="shape=umlLifeline;perimeter=lifelinePerimeter;whiteSpace=wrap;html=1;container=1;dropTarget=0;collapsible=0;recursiveResize=0;outlineConnect=0;portConstraint=eastwest;newEdgeStyle={&quot;edgeStyle&quot;:&quot;elbowEdgeStyle&quot;,&quot;elbow&quot;:&quot;vertical&quot;,&quot;curved&quot;:0,&quot;rounded&quot;:0};" vertex="1" parent="1">
          <mxGeometry x="757" y="80" width="100" height="430" as="geometry" />
        </mxCell>
        <mxCell id="MHSmnJoHn_NfGtvNQNY1-18" value="" style="html=1;points=[];perimeter=orthogonalPerimeter;outlineConnect=0;targetShapes=umlLifeline;portConstraint=eastwest;newEdgeStyle={&quot;edgeStyle&quot;:&quot;elbowEdgeStyle&quot;,&quot;elbow&quot;:&quot;vertical&quot;,&quot;curved&quot;:0,&quot;rounded&quot;:0};" vertex="1" parent="MHSmnJoHn_NfGtvNQNY1-14">
          <mxGeometry x="45" y="70" width="10" height="305" as="geometry" />
        </mxCell>
        <mxCell id="MHSmnJoHn_NfGtvNQNY1-15" value="loop" style="shape=umlFrame;whiteSpace=wrap;html=1;pointerEvents=0;" vertex="1" parent="1">
          <mxGeometry x="210" y="140" width="760" height="330" as="geometry" />
        </mxCell>
        <mxCell id="MHSmnJoHn_NfGtvNQNY1-16" value="&lt;div&gt;&lt;font style=&quot;font-size: 8px;&quot;&gt;componentesPaquete.length&lt;/font&gt;&lt;/div&gt;" style="html=1;whiteSpace=wrap;" vertex="1" parent="1">
          <mxGeometry x="480" y="410" width="190" height="20" as="geometry" />
        </mxCell>
        <mxCell id="MHSmnJoHn_NfGtvNQNY1-28" value="" style="line;strokeWidth=1;fillColor=none;align=left;verticalAlign=middle;spacingTop=-1;spacingLeft=3;spacingRight=3;rotatable=0;labelPosition=right;points=[];portConstraint=eastwest;strokeColor=inherit;" vertex="1" parent="1">
          <mxGeometry x="250" y="286" width="660" height="8" as="geometry" />
        </mxCell>
        <mxCell id="MHSmnJoHn_NfGtvNQNY1-30" value="Paquete" style="html=1;whiteSpace=wrap;" vertex="1" parent="1">
          <mxGeometry x="250" y="285" width="160" height="20" as="geometry" />
        </mxCell>
        <mxCell id="MHSmnJoHn_NfGtvNQNY1-29" value="Tratamiento" style="html=1;whiteSpace=wrap;" vertex="1" parent="1">
          <mxGeometry x="250" y="267" width="160" height="18" as="geometry" />
        </mxCell>
        <mxCell id="MHSmnJoHn_NfGtvNQNY1-35" value="precioTotal" style="html=1;verticalAlign=bottom;endArrow=open;dashed=1;endSize=8;edgeStyle=elbowEdgeStyle;elbow=vertical;curved=0;rounded=0;" edge="1" parent="1" target="MHSmnJoHn_NfGtvNQNY1-2">
          <mxGeometry relative="1" as="geometry">
            <mxPoint x="280" y="580" as="sourcePoint" />
            <mxPoint x="200" y="580" as="targetPoint" />
          </mxGeometry>
        </mxCell>
        <mxCell id="MHSmnJoHn_NfGtvNQNY1-31" value="if else" style="html=1;whiteSpace=wrap;" vertex="1" parent="1">
          <mxGeometry x="250" y="165" width="110" height="20" as="geometry" />
        </mxCell>
        <mxCell id="MHSmnJoHn_NfGtvNQNY1-11" value="2- establecerTotal()" style="html=1;verticalAlign=bottom;endArrow=block;edgeStyle=elbowEdgeStyle;elbow=vertical;curved=0;rounded=0;" edge="1" parent="1" target="MHSmnJoHn_NfGtvNQNY1-12">
          <mxGeometry width="80" relative="1" as="geometry">
            <mxPoint x="80" y="190" as="sourcePoint" />
            <mxPoint x="160" y="190" as="targetPoint" />
          </mxGeometry>
        </mxCell>
        <mxCell id="MHSmnJoHn_NfGtvNQNY1-38" value="3- calcularPrecio()" style="html=1;verticalAlign=bottom;endArrow=block;edgeStyle=elbowEdgeStyle;elbow=vertical;curved=0;rounded=0;" edge="1" parent="1" target="MHSmnJoHn_NfGtvNQNY1-14">
          <mxGeometry width="80" relative="1" as="geometry">
            <mxPoint x="290" y="210.57" as="sourcePoint" />
            <mxPoint x="370" y="210.57" as="targetPoint" />
          </mxGeometry>
        </mxCell>
        <mxCell id="MHSmnJoHn_NfGtvNQNY1-39" value="3- calcularPrecio()" style="html=1;verticalAlign=bottom;endArrow=block;edgeStyle=elbowEdgeStyle;elbow=vertical;curved=0;rounded=0;" edge="1" parent="1" target="MHSmnJoHn_NfGtvNQNY1-13">
          <mxGeometry width="80" relative="1" as="geometry">
            <mxPoint x="290" y="340.57" as="sourcePoint" />
            <mxPoint x="370" y="340.57" as="targetPoint" />
          </mxGeometry>
        </mxCell>
        <mxCell id="MHSmnJoHn_NfGtvNQNY1-41" value="frame" style="shape=umlFrame;whiteSpace=wrap;html=1;pointerEvents=0;" vertex="1" parent="1">
          <mxGeometry x="480" y="300" width="360" height="130" as="geometry" />
        </mxCell>
        <mxCell id="MHSmnJoHn_NfGtvNQNY1-42" value="precioTotal = precioInd" style="html=1;verticalAlign=bottom;endArrow=open;dashed=1;endSize=8;edgeStyle=elbowEdgeStyle;elbow=vertical;curved=0;rounded=0;" edge="1" parent="1">
          <mxGeometry x="-0.0008" relative="1" as="geometry">
            <mxPoint x="800" y="240.57" as="sourcePoint" />
            <mxPoint x="280" y="241" as="targetPoint" />
            <mxPoint as="offset" />
          </mxGeometry>
        </mxCell>
        <mxCell id="MHSmnJoHn_NfGtvNQNY1-43" value="4- calcularPrecio()" style="html=1;verticalAlign=bottom;endArrow=block;edgeStyle=elbowEdgeStyle;elbow=vertical;curved=0;rounded=0;" edge="1" parent="1" target="MHSmnJoHn_NfGtvNQNY1-14">
          <mxGeometry width="80" relative="1" as="geometry">
            <mxPoint x="560" y="360" as="sourcePoint" />
            <mxPoint x="640" y="360" as="targetPoint" />
          </mxGeometry>
        </mxCell>
        <mxCell id="MHSmnJoHn_NfGtvNQNY1-45" value="precioTotal += precioInd" style="html=1;verticalAlign=bottom;endArrow=open;dashed=1;endSize=8;edgeStyle=elbowEdgeStyle;elbow=vertical;curved=0;rounded=0;" edge="1" parent="1">
          <mxGeometry x="-0.0008" relative="1" as="geometry">
            <mxPoint x="800" y="390" as="sourcePoint" />
            <mxPoint x="550" y="390" as="targetPoint" />
            <mxPoint as="offset" />
          </mxGeometry>
        </mxCell>
        <mxCell id="MHSmnJoHn_NfGtvNQNY1-46" value="precioTotal" style="html=1;verticalAlign=bottom;endArrow=open;dashed=1;endSize=8;edgeStyle=elbowEdgeStyle;elbow=vertical;curved=0;rounded=0;" edge="1" parent="1" target="MHSmnJoHn_NfGtvNQNY1-4">
          <mxGeometry relative="1" as="geometry">
            <mxPoint x="80" y="610" as="sourcePoint" />
            <mxPoint x="-120" y="610" as="targetPoint" />
          </mxGeometry>
        </mxCell>
        <mxCell id="MHSmnJoHn_NfGtvNQNY1-47" value="componentes.length" style="html=1;whiteSpace=wrap;" vertex="1" parent="1">
          <mxGeometry x="220" y="460" width="170" height="20" as="geometry" />
        </mxCell>
      </root>
    </mxGraphModel>
  </diagram>
</mxfile>
